<svg id="Calque_1" data-name="Calque 1" xmlns="http://www.w3.org/2000/svg" viewBox="0 0 1476.86 246.95"><defs><style>.cls-1{fill:#fff;}</style></defs><rect class="cls-1" x="272.9" y="1.97" width="157" height="21" rx="5.5"/><path class="cls-1" d="M1197.87,525h-98a5.51,5.51,0,0,1-5.5-5.5v-10a5.61,5.61,0,0,1,1.62-3.89,5.45,5.45,0,0,1,3.89-1.61h98a5.5,5.5,0,0,1,5.5,5.5v10A5.5,5.5,0,0,1,1197.87,525Z" transform="translate(-821.48 -391.05)"/><rect class="cls-1" x="272.9" y="222.97" width="157" height="21" rx="5.5"/><rect class="cls-1" x="1183.75" y="504.03" width="242" height="21" rx="5.5" transform="translate(-31.25 1428.22) rotate(-90)"/><rect class="cls-1" x="505.77" y="223.47" width="125" height="21" rx="5.5"/><rect class="cls-1" x="838.6" y="2.47" width="219" height="21" rx="5.5"/><rect class="cls-1" x="1663.57" y="522.03" width="206" height="21" rx="5.5" transform="translate(412.57 1908.05) rotate(-90)"/><rect class="cls-1" y="2.47" width="218" height="21" rx="5.5"/><rect class="cls-1" y="223.47" width="218" height="21" rx="5.5"/><rect class="cls-1" x="1428.5" y="504.19" width="272.19" height="20.67" rx="5.5" transform="translate(-453.17 1255.54) rotate(-61.62)"/><rect class="cls-1" x="1431.95" y="446.55" width="142.93" height="20.67" rx="5.5" transform="translate(1037.97 1596.27) rotate(-120)"/><path class="cls-1" d="M2192.12,396,2128,628.13a5.7,5.7,0,0,0,4,7l9.64,2.66a5.68,5.68,0,0,0,7-4l65.58-237.27c.05-.19.09-.37.13-.56Z" transform="translate(-821.48 -391.05)"/><path class="cls-1" d="M2298.13,628l-65-232H2211a6.1,6.1,0,0,0,.14.72l66.46,237a5.68,5.68,0,0,0,7,3.94l9.63-2.7A5.69,5.69,0,0,0,2298.13,628Z" transform="translate(-821.48 -391.05)"/><rect class="cls-1" x="1804.57" y="501.55" width="242" height="21" rx="5.5" transform="translate(592.05 2046.57) rotate(-90)"/><rect class="cls-1" x="1129.86" width="97.49" height="21" rx="5.5"/><rect class="cls-1" x="2039.32" y="429.72" width="51.82" height="22.41" rx="5.5" transform="translate(1684.68 -2015.35) rotate(90)"/><path class="cls-1" d="M2019.3,391.41c2.62,0,6.85.08,12.07,0,14.09-.2,17.61-1,23.15.69a29.46,29.46,0,0,1,12.26,7.28l.35.35a33.51,33.51,0,0,1,9.31,26c-.46,10-3.6,30.8-9.85,31.18-5.56.34-12.19-15.55-12.57-22.81,0-.5-.26-2.17-.37-4.5,0-.88-.3-6.44-2.13-9.69-3.67-6.46-15.59-7.15-20.21-7.41-.78-.05-3.52-.06-9-.09-4.24,0-7.72,0-10,0" transform="translate(-821.48 -391.05)"/><rect class="cls-1" x="1937.95" y="546.88" width="171.63" height="20.67" rx="5.5" transform="matrix(-0.54, -0.84, 0.84, -0.54, 1819.91, 2172.32)"/></svg>