<svg id="Calque_1" data-name="Calque 1" xmlns="http://www.w3.org/2000/svg" viewBox="0 0 1476.85 247.03"><defs><style>.cls-1{fill:#752ac8;}</style></defs><title>logo_full</title><rect class="cls-1" x="272.9" y="1.97" width="157" height="21" rx="5.5" ry="5.5"/><path class="cls-1" d="M376.39,134h-98a5.51,5.51,0,0,1-5.5-5.5v-10a5.57,5.57,0,0,1,1.62-3.89A5.42,5.42,0,0,1,278.4,113h98a5.5,5.5,0,0,1,5.5,5.5h0v10a5.5,5.5,0,0,1-5.5,5.5Z" transform="translate(0 0)"/><rect class="cls-1" x="272.9" y="222.97" width="157" height="21" rx="5.5" ry="5.5"/><rect class="cls-1" x="472.78" y="2.47" width="21" height="242" rx="5.5" ry="5.5"/><rect class="cls-1" x="505.77" y="223.47" width="125" height="21" rx="5.5" ry="5.5"/><rect class="cls-1" x="838.6" y="2.47" width="219" height="21" rx="5.5" ry="5.5"/><rect class="cls-1" x="934.6" y="38.48" width="21" height="206" rx="5.5" ry="5.5"/><rect class="cls-1" y="2.47" width="218" height="21" rx="5.5" ry="5.5"/><rect class="cls-1" y="223.47" width="218" height="21" rx="5.5" ry="5.5"/><rect class="cls-1" x="607.1" y="113.21" width="272.19" height="20.67" rx="5.5" ry="5.5" transform="translate(281.24 718.7) rotate(-61.62)"/><rect class="cls-1" x="671.6" y="-5.63" width="20.67" height="142.93" rx="5.5" ry="5.5" transform="translate(58.45 349.79) rotate(-30)"/><path class="cls-1" d="M1370.64,5l-64.12,232.13a5.7,5.7,0,0,0,4,7h0l9.64,2.66a5.68,5.68,0,0,0,7-4v0L1392.74,5.47c0-.19.09-.37.13-.56Z" transform="translate(0 0)"/><path class="cls-1" d="M1476.65,237l-65-232h-22.13a6.1,6.1,0,0,0,.14.72l66.46,237a5.68,5.68,0,0,0,7,3.94l9.63-2.7A5.69,5.69,0,0,0,1476.65,237Z" transform="translate(0 0)"/><rect class="cls-1" x="1093.6" width="21" height="242" rx="5.5" ry="5.5"/><rect class="cls-1" x="1129.86" width="97.49" height="21" rx="5.5" ry="5.5"/><rect class="cls-1" x="1232.55" y="23.97" width="22.41" height="51.82" rx="5.5" ry="5.5"/><path class="cls-1" d="M1197.82.36c2.62,0,6.85.08,12.07,0,14.09-.2,17.61-1,23.15.69a29.56,29.56,0,0,1,12.26,7.28l.35.35a33.5,33.5,0,0,1,9.31,26c-.46,10-3.6,30.8-9.85,31.18-5.56.34-12.19-15.55-12.57-22.81,0-.5-.26-2.17-.37-4.5,0-.88-.3-6.44-2.13-9.69-3.67-6.46-15.59-7.15-20.21-7.41-.78-.05-3.52-.06-9-.09h-10" transform="translate(0 0)"/><rect class="cls-1" x="1184.82" y="85.77" width="20.64" height="171.39" rx="5.49" ry="5.49" transform="translate(97.09 673.52) rotate(-32.74)"/></svg>